<svg width="386" height="98" viewBox="0 0 386 98" fill="none" xmlns="http://www.w3.org/2000/svg">
<g clip-path="url(#clip0_1_366)">
<g clip-path="url(#clip1_1_366)">
<path d="M116.027 3.86237C116.027 1.72924 115.118 0 113.996 0C112.875 0 111.966 1.72924 111.966 3.86237V94.1376C111.966 96.2708 112.875 98 113.996 98C115.118 98 116.027 96.2708 116.027 94.1376V3.86237Z" fill="white"/>
<g clip-path="url(#clip2_1_366)">
<g clip-path="url(#clip3_1_366)">
<g clip-path="url(#clip4_1_366)">
<g clip-path="url(#clip5_1_366)">
<path d="M146.381 33.9443H141.283V45.6506H137V14.3494H146.381C148.385 14.3494 150.132 14.5792 151.621 15.0396C153.105 15.5 154.335 16.1517 155.31 16.9965C156.285 17.8412 157.012 18.8598 157.491 20.0541C157.976 21.2483 158.218 22.5788 158.218 24.0464C158.218 25.5027 157.958 26.8358 157.438 28.0475C156.924 29.2592 156.167 30.3014 155.168 31.175C154.169 32.0425 152.931 32.7213 151.453 33.2105C149.975 33.6997 148.285 33.9443 146.381 33.9443ZM141.283 17.6953V30.5809H146.381C147.605 30.5809 148.686 30.4211 149.626 30.1005C150.566 29.7799 151.353 29.3317 151.985 28.7551C152.623 28.1785 153.105 27.491 153.43 26.6934C153.756 25.8897 153.918 25.0074 153.918 24.0464C153.918 22.0546 153.291 20.497 152.038 19.3726C150.79 18.2544 148.905 17.6953 146.381 17.6953H141.283ZM171.625 32.5902H168.371V45.6506H164.088V14.3494H173.07C175.074 14.3494 176.809 14.5504 178.275 14.9522C179.74 15.3541 180.95 15.9333 181.901 16.6907C182.853 17.4481 183.559 18.3619 184.02 19.4338C184.475 20.4996 184.703 21.6964 184.703 23.0243C184.703 24.1311 184.526 25.1646 184.171 26.1256C183.817 27.0865 183.302 27.9488 182.628 28.7114C181.954 29.4802 181.136 30.1328 180.172 30.6683C179.203 31.2038 178.106 31.6118 176.883 31.8913C177.415 32.1945 177.885 32.6365 178.293 33.2192L187.567 45.6506H183.754C182.968 45.6506 182.392 45.3509 182.025 44.7507L173.779 33.5687C173.525 33.2192 173.25 32.9685 172.955 32.8174C172.659 32.6662 172.216 32.5902 171.625 32.5902ZM168.371 17.6953V29.5064H172.866C174.119 29.5064 175.225 29.3579 176.182 29.0609C177.134 28.7639 177.932 28.3419 178.576 27.7942C179.221 27.2464 179.705 26.5947 180.03 25.8373C180.35 25.0799 180.509 24.2447 180.509 23.3301C180.509 21.4667 179.886 20.0602 178.638 19.1106C177.391 18.1671 175.535 17.6953 173.07 17.6953H168.371ZM220.676 30.0131C220.676 32.3544 220.301 34.506 219.55 36.469C218.799 38.4259 217.735 40.1093 216.358 41.5184C214.986 42.9337 213.334 44.0318 211.401 44.8119C209.474 45.592 207.343 45.9825 205.008 45.9825C202.673 45.9825 200.545 45.592 198.624 44.8119C196.703 44.0318 195.057 42.9337 193.685 41.5184C192.308 40.1093 191.241 38.4259 190.484 36.469C189.733 34.506 189.358 32.3544 189.358 30.0131C189.358 27.6657 189.733 25.5141 190.484 23.5572C191.241 21.6003 192.308 19.9117 193.685 18.4903C195.057 17.0751 196.703 15.9717 198.624 15.1794C200.545 14.3931 202.673 14 205.008 14C207.343 14 209.474 14.3931 211.401 15.1794C213.334 15.9717 214.986 17.0751 216.358 18.4903C217.735 19.9117 218.799 21.6003 219.55 23.5572C220.301 25.5141 220.676 27.6657 220.676 30.0131ZM216.269 30.0131C216.269 28.0912 216.003 26.3641 215.471 24.8326C214.939 23.3065 214.185 22.017 213.21 20.9626C212.234 19.9029 211.053 19.0905 209.663 18.5253C208.274 17.96 206.722 17.6779 205.008 17.6779C203.306 17.6779 201.763 17.96 200.38 18.5253C198.985 19.0905 197.797 19.9029 196.815 20.9626C195.834 22.017 195.077 23.3065 194.545 24.8326C194.013 26.3641 193.747 28.0912 193.747 30.0131C193.747 31.935 194.013 33.656 194.545 35.1761C195.077 36.6961 195.834 37.9865 196.815 39.0461C197.797 40.1006 198.985 40.9069 200.38 41.466C201.763 42.0251 203.306 42.3047 205.008 42.3047C206.722 42.3047 208.274 42.0251 209.663 41.466C211.053 40.9069 212.234 40.1006 213.21 39.0461C214.185 37.9865 214.939 36.6961 215.471 35.1761C216.003 33.656 216.269 31.935 216.269 30.0131ZM238.507 14.3494V34.8354C238.507 36.5826 238.288 38.1489 237.851 39.5354C237.413 40.9156 236.769 42.0836 235.918 43.0385C235.066 43.9933 234.023 44.7245 232.788 45.2312C231.546 45.744 230.119 46 228.505 46C227.075 46 225.582 45.7964 224.027 45.3885C224.057 44.963 224.096 44.5437 224.143 44.1305C224.184 43.7173 224.229 43.3067 224.276 42.8987C224.305 42.648 224.397 42.4471 224.55 42.2959C224.704 42.1448 224.938 42.0688 225.251 42.0688C225.517 42.0688 225.872 42.1326 226.315 42.261C226.758 42.3946 227.35 42.4619 228.088 42.4619C229.057 42.4619 229.924 42.316 230.686 42.0251C231.449 41.7342 232.093 41.2826 232.619 40.671C233.145 40.0595 233.544 39.2759 233.816 38.321C234.088 37.3662 234.224 36.2331 234.224 34.9227V14.3494H238.507ZM246.239 14.3494H265.816V17.8002H250.565V28.196H262.908V31.5157H250.565V42.1998H265.816V45.6506H246.239V14.3494ZM294.385 39.1859C294.622 39.1859 294.835 39.2794 295.023 39.4655L296.708 41.2826C295.414 42.7677 293.838 43.9234 291.982 44.7507C290.126 45.5833 287.888 46 285.27 46C282.982 46 280.908 45.6095 279.046 44.8294C277.184 44.0545 275.596 42.9625 274.284 41.5534C272.966 40.1495 271.943 38.4634 271.216 36.4952C270.495 34.5322 270.134 32.3718 270.134 30.0131C270.134 27.6544 270.522 25.4905 271.296 23.5222C272.076 21.5593 273.167 19.8706 274.568 18.4554C275.975 17.0462 277.656 15.9508 279.613 15.1706C281.57 14.3905 283.73 14 286.095 14C288.429 14 290.442 14.3582 292.133 15.0745C293.829 15.7909 295.334 16.758 296.646 17.9749L295.245 19.923C295.145 20.0689 295.03 20.1877 294.899 20.2812C294.764 20.3747 294.571 20.421 294.323 20.421C294.128 20.421 293.924 20.3537 293.711 20.22C293.492 20.0803 293.235 19.9082 292.94 19.7046C292.644 19.5011 292.299 19.2827 291.902 19.0494C291.506 18.8162 291.033 18.5978 290.484 18.3942C289.94 18.1907 289.304 18.0186 288.577 17.8788C287.85 17.7451 287.014 17.6779 286.068 17.6779C284.372 17.6779 282.817 17.9635 281.404 18.534C279.992 19.1106 278.777 19.9291 277.76 20.9888C276.743 22.0546 275.948 23.3501 275.375 24.8763C274.807 26.4078 274.523 28.12 274.523 30.0131C274.523 31.9639 274.807 33.7023 275.375 35.2285C275.948 36.7599 276.725 38.0529 277.707 39.1073C278.688 40.1617 279.85 40.9654 281.191 41.5184C282.539 42.0714 283.991 42.3483 285.545 42.3483C286.485 42.3483 287.333 42.2959 288.09 42.1911C288.846 42.0802 289.544 41.9089 290.182 41.6757C290.827 41.4424 291.426 41.1489 291.982 40.7933C292.532 40.4325 293.09 40.0045 293.658 39.5091C293.906 39.2934 294.148 39.1859 294.385 39.1859ZM299.129 14.3494H324V17.9137H313.741V45.6506H309.432V17.9137H299.129V14.3494Z" fill="white"/>
<path d="M153.819 56.1398L152.776 58.0778C152.647 58.2919 152.509 58.4527 152.361 58.5602C152.214 58.6618 152.023 58.7125 151.787 58.7125C151.533 58.7125 151.242 58.594 150.912 58.3571C150.582 58.1142 150.161 57.8493 149.648 57.5616C149.142 57.2738 148.533 57.0089 147.819 56.766C147.106 56.5291 146.24 56.4106 145.222 56.4106C144.267 56.4106 143.422 56.535 142.686 56.783C141.95 57.0259 141.334 57.3584 140.839 57.7816C140.344 58.2048 139.973 58.7041 139.726 59.2796C139.472 59.8491 139.346 60.4644 139.346 61.1245C139.346 61.9708 139.564 62.6732 140 63.2318C140.43 63.7903 141.004 64.2668 141.723 64.662C142.436 65.0572 143.245 65.3983 144.153 65.6861C145.06 65.9738 145.988 66.2725 146.936 66.5831C147.884 66.8937 148.812 67.2432 149.719 67.6325C150.627 68.0218 151.436 68.5127 152.149 69.1051C152.862 69.6975 153.436 70.4228 153.872 71.2801C154.308 72.1433 154.526 73.2012 154.526 74.4537C154.526 75.7799 154.29 77.0265 153.819 78.1944C153.348 79.3563 152.659 80.3668 151.751 81.2241C150.844 82.0874 149.731 82.7644 148.411 83.2553C147.098 83.752 145.602 84 143.923 84C141.873 84 140.006 83.6446 138.321 82.9337C136.636 82.2168 135.196 81.2521 134 80.0393L135.237 78.0928C135.355 77.9405 135.499 77.811 135.67 77.7035C135.841 77.596 136.03 77.5427 136.235 77.5427C136.542 77.5427 136.896 77.7035 137.296 78.0251C137.691 78.3408 138.186 78.6878 138.78 79.0661C139.381 79.4494 140.103 79.7998 140.945 80.1155C141.793 80.4311 142.83 80.5894 144.055 80.5894C145.069 80.5894 145.973 80.4565 146.768 80.1916C147.563 79.9208 148.237 79.5425 148.791 79.0576C149.345 78.5727 149.77 77.9913 150.064 77.3142C150.358 76.6372 150.506 75.8814 150.506 75.0461C150.506 74.1321 150.287 73.3815 149.852 72.795C149.416 72.2085 148.844 71.7176 148.138 71.3224C147.431 70.9272 146.624 70.5946 145.716 70.3238C144.815 70.047 143.887 69.7652 142.933 69.4775C141.985 69.1838 141.057 68.8487 140.15 68.4704C139.249 68.087 138.444 67.5928 137.738 66.9894C137.031 66.38 136.459 65.6209 136.023 64.7128C135.588 63.8047 135.37 62.6791 135.37 61.3361C135.37 60.2638 135.588 59.2288 136.023 58.2301C136.459 57.2256 137.09 56.337 137.914 55.5643C138.739 54.7857 139.758 54.1654 140.972 53.7024C142.185 53.2344 143.581 53 145.16 53C146.921 53 148.532 53.2708 149.993 53.8124C151.454 54.3431 152.73 55.1183 153.819 56.1398ZM182.289 77.3989C182.524 77.3989 182.739 77.4894 182.934 77.6697L184.612 79.43C183.316 80.8687 181.743 81.9883 179.894 82.7898C178.045 83.5963 175.818 84 173.214 84C170.928 84 168.858 83.6217 167.002 82.866C165.147 82.1153 163.562 81.0574 162.249 79.6923C160.941 78.3323 159.927 76.699 159.209 74.7922C158.484 72.8906 158.122 70.7977 158.122 68.5127C158.122 66.2277 158.508 64.1314 159.28 62.2247C160.057 60.323 161.144 58.6871 162.54 57.3161C163.942 55.9511 165.618 54.8898 167.568 54.134C169.518 53.3783 171.67 53 174.027 53C176.353 53 178.359 53.347 180.044 54.041C181.729 54.7349 183.228 55.6718 184.542 56.8507L183.154 58.7379C183.048 58.8793 182.927 58.9943 182.792 59.0849C182.662 59.1755 182.474 59.2203 182.227 59.2203C182.032 59.2203 181.829 59.1551 181.617 59.0257C181.405 58.8903 181.151 58.7235 180.857 58.5263C180.563 58.3292 180.215 58.1176 179.814 57.8916C179.419 57.6657 178.949 57.4541 178.401 57.2569C177.859 57.0597 177.226 56.893 176.501 56.7576C175.783 56.6281 174.952 56.5629 174.009 56.5629C172.313 56.5629 170.76 56.8397 169.353 57.3923C167.95 57.9509 166.74 58.7438 165.721 59.7704C164.708 60.8029 163.916 62.058 163.344 63.5364C162.779 65.02 162.496 66.6788 162.496 68.5127C162.496 70.4025 162.779 72.0866 163.344 73.5651C163.916 75.0487 164.69 76.3012 165.668 77.3227C166.646 78.3442 167.806 79.1228 169.149 79.6585C170.486 80.1942 171.93 80.4625 173.479 80.4625C174.422 80.4625 175.267 80.4117 176.015 80.3101C176.769 80.2026 177.464 80.0368 178.1 79.8108C178.743 79.5849 179.34 79.3005 179.894 78.956C180.448 78.6065 181.005 78.1918 181.564 77.712C181.811 77.5029 182.053 77.3989 182.289 77.3989ZM219.647 68.5127C219.647 70.7808 219.27 72.8652 218.516 74.7669C217.768 76.6626 216.707 78.2934 215.335 79.6585C213.963 81.0295 212.316 82.0933 210.396 82.849C208.476 83.6048 206.351 83.9831 204.025 83.9831C201.698 83.9831 199.578 83.6048 197.663 82.849C195.748 82.0933 194.105 81.0295 192.733 79.6585C191.366 78.2934 190.309 76.6626 189.561 74.7669C188.807 72.8652 188.43 70.7808 188.43 68.5127C188.43 66.2387 188.807 64.1542 189.561 62.2585C190.309 60.3628 191.366 58.7269 192.733 57.35C194.105 55.979 195.748 54.9101 197.663 54.1425C199.578 53.3808 201.698 53 204.025 53C206.351 53 208.476 53.3808 210.396 54.1425C212.316 54.9101 213.963 55.979 215.335 57.35C216.707 58.7269 217.768 60.3628 218.516 62.2585C219.27 64.1542 219.647 66.2387 219.647 68.5127ZM215.247 68.5127C215.247 66.6508 214.982 64.9777 214.451 63.4941C213.921 62.0156 213.17 60.7665 212.198 59.745C211.226 58.7185 210.048 57.9314 208.664 57.3838C207.279 56.8363 205.733 56.5629 204.025 56.5629C202.335 56.5629 200.794 56.8363 199.404 57.3838C198.025 57.9314 196.844 58.7185 195.861 59.745C194.882 60.7665 194.129 62.0156 193.599 63.4941C193.068 64.9777 192.803 66.6508 192.803 68.5127C192.803 70.3746 193.068 72.0418 193.599 73.5143C194.129 74.9869 194.882 76.2369 195.861 77.2634C196.844 78.2849 198.025 79.0661 199.404 79.6077C200.794 80.1493 202.335 80.4201 204.025 80.4201C205.733 80.4201 207.279 80.1493 208.664 79.6077C210.048 79.0661 211.226 78.2849 212.198 77.2634C213.17 76.2369 213.921 74.9869 214.451 73.5143C214.982 72.0418 215.247 70.3746 215.247 68.5127ZM235.287 72.321H230.206V83.6615H225.938V53.3385H235.287C237.29 53.3385 239.03 53.5611 240.509 54.0071C241.987 54.4531 243.212 55.0844 244.184 55.9028C245.156 56.7212 245.881 57.708 246.358 58.8649C246.841 60.0218 247.083 61.3107 247.083 62.7325C247.083 64.1432 246.824 65.4347 246.305 66.6085C245.793 67.7823 245.039 68.792 244.043 69.6383C243.047 70.4787 241.814 71.1362 240.341 71.6102C238.868 72.0841 237.184 72.321 235.287 72.321ZM230.206 56.5799V69.0628H235.287C236.506 69.0628 237.584 68.9079 238.521 68.5973C239.457 68.2867 240.241 67.8526 240.871 67.294C241.507 66.7355 241.987 66.0694 242.311 65.2968C242.635 64.5182 242.797 63.6634 242.797 62.7325C242.797 60.8029 242.172 59.2939 240.924 58.2048C239.681 57.1215 237.802 56.5799 235.287 56.5799H230.206ZM252.49 53.3385H272V56.6814H256.802V66.7524H269.102V69.9683H256.802V80.3186H272V83.6615H252.49V53.3385Z" fill="white"/>
</g>
</g>
</g>
</g>
</g>
<path d="M23.1594 17.0362C19.507 20.6751 16.0917 24.1399 15.5541 24.7253L14.6054 25.817L27.7922 39.0118L40.9789 52.2067L30.654 62.5379C24.9935 68.2177 20.345 72.9008 20.345 72.9641C20.345 73.0115 19.6018 75.8593 18.6848 79.2767C17.7677 82.7099 17.0246 85.7159 17.0246 85.9533C17.0246 86.5703 17.9416 87.4879 18.5425 87.4879C19.0484 87.4879 31.2549 84.2762 31.6976 84.0231C31.8399 83.944 45.0583 70.7491 61.0753 54.7064C92.7141 23.0008 90.8483 24.9784 91.4175 22.6053C92.05 19.884 91.2278 17.0678 89.2197 15.106C87.2591 13.1917 84.5395 12.4322 81.8674 13.0493C79.5905 13.5872 79.8593 13.3657 67.6529 25.5322L56.3951 36.781L43.2242 23.602C35.9983 16.3717 30.0058 10.4388 29.9267 10.4388C29.8635 10.4388 26.8119 13.4132 23.1594 17.0362ZM31.2549 16.5299L32.4249 17.7165L31.413 18.7449L30.3853 19.7733L31.6185 20.9915L32.836 22.2256L33.8638 21.1972L34.8915 20.1688L36.109 21.4028L37.3423 22.6211L35.4765 24.488L33.6266 26.3391L34.7808 27.494C35.4133 28.111 35.9983 28.6331 36.0774 28.6331C36.1564 28.6331 37.0261 27.8262 38.0064 26.8612L39.7931 25.0734L40.9789 26.26L42.1648 27.4465L41.1371 28.4749L40.1093 29.5033L41.3268 30.7215L42.5601 31.9556L43.5878 30.9272L44.6314 29.8988L45.8014 31.0854L46.9873 32.272L45.2006 34.0598C44.2361 35.0407 43.4297 35.9109 43.4297 35.99C43.4297 36.0849 43.9673 36.6861 44.6156 37.3348L45.8014 38.5214L47.6672 36.6545L49.5171 34.8034L50.703 35.99L51.873 37.1766L50.8611 38.2049L49.8492 39.2333L50.8611 40.2617L51.8888 41.2901L47.6514 45.5301L43.4297 49.7544L31.4604 37.7778L19.4753 25.7853L24.6931 20.5643C27.555 17.7007 29.9425 15.3433 29.99 15.3433C30.0374 15.3433 30.6066 15.8813 31.2549 16.5299ZM57.7391 53.156L29.99 80.9221L26.796 77.7104L23.5863 74.5145L51.3354 46.7484L79.0846 18.9822L82.2785 22.1781L85.4882 25.3898L57.7391 53.156Z" fill="white"/>
<path d="M67.1612 51.5422L64.9002 53.773L66.1651 55.0545L67.43 56.3202L68.4578 55.2918L69.5013 54.2635L70.6714 55.45L71.8572 56.6366L69.9915 58.5035L68.1415 60.3546L69.2958 61.5096C69.9282 62.1266 70.5133 62.6487 70.5923 62.6487C70.6714 62.6487 71.541 61.8418 72.5213 60.8767L74.308 59.0889L75.4939 60.2755L76.6797 61.4463L75.652 62.4905L74.6242 63.5188L75.8575 64.7529L77.0908 65.9711L78.1028 64.9427L79.1147 63.9144L80.348 65.1326L81.5813 66.3667L79.7313 68.2177L77.8656 70.0846L79.0989 71.3029L80.3164 72.5369L82.1821 70.67L84.0321 68.8189L85.2179 70.0055L86.388 71.1921L85.376 72.2205L84.3483 73.2489L85.5816 74.4671L86.7991 75.7012L87.8268 74.6728L88.8546 73.6602L89.2815 74.0874L89.7242 74.5146L84.459 79.783L79.2096 85.0356L67.8569 73.676L56.5201 62.3323L55.2868 63.5663L54.0693 64.7845L66.6236 77.3466L79.1779 89.9086L80.2689 88.9593C81.7394 87.6461 94.5467 74.7361 94.5467 74.5778C94.5467 74.4987 88.902 68.7873 81.9924 61.8734L69.4223 49.2956L67.1612 51.5422Z" fill="white"/>
</g>
<defs>
<clipPath id="clip0_1_366">
<rect width="386" height="98" fill="white"/>
</clipPath>
<clipPath id="clip1_1_366">
<rect width="386" height="98" fill="white"/>
</clipPath>
<clipPath id="clip2_1_366">
<rect width="190.487" height="71.6232" fill="white" transform="translate(133.535 12.5266)"/>
</clipPath>
<clipPath id="clip3_1_366">
<rect width="190.487" height="71.6232" fill="white" transform="translate(133.535 12.5266)"/>
</clipPath>
<clipPath id="clip4_1_366">
<rect width="190.487" height="71.6232" fill="white" transform="translate(133.535 12.5266)"/>
</clipPath>
<clipPath id="clip5_1_366">
<rect width="190.487" height="71.6232" fill="white" transform="translate(133.535 12.5266)"/>
</clipPath>
</defs>
</svg>
