<svg width="54" height="54" viewBox="0 0 54 54" fill="none" xmlns="http://www.w3.org/2000/svg">
<circle cx="27" cy="27" r="27" fill="#EDEDED"/>
<path d="M12.0997 10.16C10.3492 11.903 8.71234 13.5626 8.45468 13.843L8 14.3659L14.3201 20.6859L20.6402 27.006L15.6917 31.9545C12.9788 34.675 10.7508 36.9181 10.7508 36.9484C10.7508 36.9711 10.3947 38.3352 9.95513 39.972C9.51561 41.6165 9.15944 43.0563 9.15944 43.17C9.15944 43.4655 9.59897 43.905 9.88693 43.905C10.1294 43.905 15.9797 42.3667 16.1919 42.2454C16.2601 42.2075 22.5953 35.8875 30.2718 28.2033C45.4355 13.017 44.5413 13.9642 44.8141 12.8275C45.1172 11.5241 44.7232 10.1752 43.7607 9.23552C42.8211 8.31858 41.5176 7.95484 40.237 8.25038C39.1457 8.50803 39.2745 8.40194 33.4243 14.2294L28.0287 19.6174L21.7162 13.3049C18.2531 9.84177 15.381 7 15.3431 7C15.3128 7 13.8502 8.42467 12.0997 10.16ZM15.9797 9.91755L16.5404 10.4859L16.0555 10.9785L15.5629 11.471L16.154 12.0546L16.7375 12.6456L17.23 12.1531L17.7226 11.6605L18.3061 12.2516L18.8972 12.8351L18.003 13.7293L17.1164 14.6159L17.6696 15.1691C17.9727 15.4647 18.2531 15.7147 18.291 15.7147C18.3289 15.7147 18.7457 15.3283 19.2155 14.866L20.0718 14.0097L20.6402 14.578L21.2085 15.1464L20.7159 15.639L20.2234 16.1315L20.8069 16.715L21.398 17.3061L21.8905 16.8136L22.3907 16.321L22.9515 16.8893L23.5198 17.4577L22.6635 18.314C22.2012 18.7838 21.8148 19.2006 21.8148 19.2385C21.8148 19.284 22.0724 19.572 22.3831 19.8827L22.9515 20.451L23.8457 19.5568L24.7323 18.6702L25.3007 19.2385L25.8614 19.8069L25.3764 20.2995L24.8914 20.792L25.3764 21.2846L25.869 21.7772L23.8381 23.8081L21.8148 25.8314L16.0782 20.0948L10.334 14.3507L12.8348 11.8499C14.2064 10.4783 15.3507 9.34919 15.3734 9.34919C15.3962 9.34919 15.669 9.60685 15.9797 9.91755ZM28.6729 27.4607L15.3734 40.7601L13.8427 39.2218L12.3043 37.691L25.6038 24.3916L38.9032 11.0921L40.434 12.6229L41.9723 14.1612L28.6729 27.4607Z" fill="black"/>
<path d="M33.1887 26.6877L32.105 27.7562L32.7113 28.37L33.3175 28.9763L33.8101 28.4837L34.3102 27.9911L34.871 28.5595L35.4394 29.1278L34.5451 30.0221L33.6585 30.9087L34.2117 31.4619C34.5148 31.7574 34.7952 32.0075 34.8331 32.0075C34.871 32.0075 35.2878 31.621 35.7576 31.1588L36.6139 30.3024L37.1823 30.8708L37.7507 31.4316L37.2581 31.9317L36.7655 32.4243L37.3566 33.0154L37.9477 33.5989L38.4327 33.1063L38.9177 32.6137L39.5088 33.1973L40.0998 33.7883L39.2132 34.675L38.319 35.5692L38.9101 36.1527L39.4936 36.7438L40.3878 35.8496L41.2744 34.9629L41.8428 35.5313L42.4036 36.0996L41.9186 36.5922L41.426 37.0848L42.0171 37.6683L42.6006 38.2594L43.0932 37.7668L43.5857 37.2818L43.7903 37.4864L44.0025 37.691L41.479 40.2145L38.9631 42.7304L33.5221 37.2894L28.0887 31.8559L27.4976 32.447L26.9141 33.0305L32.931 39.0475L38.948 45.0645L39.4709 44.6098C40.1756 43.9808 46.3138 37.7971 46.3138 37.7213C46.3138 37.6834 43.6085 34.9478 40.2969 31.6362L34.2723 25.6116L33.1887 26.6877Z" fill="black"/>
</svg>
